DataType=double
version=3
OpenSimVersion=4.5.2-2025-05-03-6a4c6ec41
endheader
time	q	/jointset/head_joint/q/speed
5.000000000000004	0.7239492904119752	0.2959678442662144
5.001000000000005	0.7242450587982897	0.295568056784362
5.002000000000005	0.7245404493883005	0.2952122529997341
5.003000000000005	0.7248355041228656	0.2948963471092896
5.004000000000006	0.7251302610600864	0.2946166594151639
5.005000000000006	0.7254247547611163	0.2943698757289981
5.006000000000006	0.7257190166374023	0.2941530108357491
5.007000000000007	0.7260130752632173	0.2939633756110316
5.008000000000007	0.7263069566569542	0.2937985474266447
5.009000000000007	0.7265962096511808	0.2847065904249698
5.010000000000008	0.7268779376158829	0.2787485107167011
5.011000000000008	0.7271537221839492	0.2728198148274906
5.012000000000008	0.7274239403474068	0.2676157180528185
5.013000000000009	0.7276891934671326	0.2628897421395717
5.014000000000009	0.7279499577507864	0.258638059275599
5.015000000000009	0.7282066785219542	0.254802729217624
5.01600000000001	0.7284597528698294	0.25134522356673
5.01700000000001	0.7287095395777937	0.2482274592118908
5.01800000000001	0.7289563616742699	0.2454160094525377
5.019000000000011	0.7292005103244624	0.2428805746467352
5.020000000000011	0.7294422479340205	0.240593935411182
5.021000000000011	0.7296818110420668	0.2385315781525684
5.022000000000012	0.7299194129000168	0.2366714411186835
5.023000000000012	0.7301552457987638	0.2349936650793972
5.024000000000012	0.7303894831616056	0.233480374129669
5.025000000000013	0.7306222814282849	0.2321154771147075
5.026000000000013	0.7308537817505457	0.2308844892367294
5.027000000000013	0.7310841115181747	0.2297743714198273
5.028000000000014	0.7313133857324495	0.2287733857584634
5.029000000000014	0.7315417082422604	0.2278709654159114
5.030000000000014	0.7317691728566351	0.2270575975339893
5.031000000000015	0.7319958643460285	0.2263247178513783
5.032000000000015	0.7322218593434985	0.2256646158600718
5.033000000000015	0.7324472271557814	0.2250703494460466
5.034000000000016	0.732672030493275	0.2245356680657639
5.035000000000016	0.7328963261270394	0.2240549436049146
5.036000000000016	0.7331201654801133	0.2236231081511907
5.037000000000017	0.733343595159715	0.2232355979896812
5.038000000000017	0.7335666574362379	0.2228883031986343
5.039000000000017	0.7337893906743627	0.2225775222855511
5.040000000000018	0.7340118297210728	0.2222999213595803
5.041000000000018	0.734234006254885	0.2220524973865852
5.042000000000018	0.7344559491001705	0.2218325451186181
5.043000000000019	0.7346776845100603	0.2216376273303629
5.044000000000019	0.7348992364210741	0.22146554803185
5.045000000000019	0.735120626682302	0.2213143283598189
5.04600000000002	0.7353418752616826	0.2211821848798631
5.04700000000002	0.7355630004316679	0.2210675100582822
5.04800000000002	0.7357840189363365	0.2209688546866693
5.049000000000021	0.7360049461418103	0.2208849120639639
5.050000000000021	0.7362257961716441	0.2208145037602213
5.051000000000021	0.7364465820286898	0.2207565668039311
5.052000000000022	0.7366673157047903	0.2207101421505275
5.053000000000022	0.7368880082795165	0.2206743643039751
5.054000000000022	0.7371086700090462	0.220648451976123
5.055000000000023	0.7373293104061686	0.2206316996800491
5.056000000000023	0.7375499383123023	0.2206234701639997
5.057000000000023	0.7377660870791365	0.2116734342480685
5.058000000000024	0.7379748461216628	0.205844043178618
5.059000000000024	0.7381777844906485	0.2000321042197112
5.060000000000024	0.7383752678317879	0.1949340034652773
5.061000000000025	0.738567887271946	0.1903043165086753
5.062000000000025	0.7387516349027965	0.1771904107501021
5.063000000000025	0.7389240294445785	0.167598171474295
5.064000000000026	0.7390870223256832	0.1583871168089389
5.065000000000026	0.7392413244421191	0.1502166674710384
5.066000000000026	0.7393878374791479	0.1428089806980298
5.067000000000027	0.7395273080659324	0.1361317875061392
5.068000000000027	0.7396604249547979	0.1301016033751468
5.069000000000027	0.7397878043897399	0.1246568963767616
5.070000000000028	0.7399100024570255	0.1197388831585311
5.071000000000028	0.7400275198220984	0.1152955055877837
5.072000000000028	0.7401408075872105	0.1112796955592033
5.073000000000029	0.7402502721647801	0.1076491416408008
5.074000000000029	0.7403562797630501	0.1043657470308319
5.075000000000029	0.7404591603983001	0.1013952247107691
5.07600000000003	0.7405592115120819	0.0987067123381611
5.07700000000003	0.7406567012251944	0.09627243083521451
5.07800000000003	0.7407518712666694	0.09406737582219488
5.079000000000031	0.7408449396097799	0.09206904023125383
5.080000000000031	0.740936102844492	0.09025716457771012
5.081000000000031	0.7410255383126821	0.08861351222427426
5.082000000000032	0.7411134060298549	0.08712166711363468
5.083000000000032	0.7411998504147045	0.085766851728904
5.084000000000032	0.7412850018457403	0.08453576325756761
5.085000000000033	0.7413689780622668	0.08341642613898724
5.086000000000033	0.7414518854252831	0.08239805935701139
5.087000000000033	0.7415338200523114	0.08147095700321212
5.088000000000034	0.7416148688387594	0.08062638078368423
5.089000000000034	0.7416951103771638	0.07985646327505572
5.090000000000034	0.7417746157845279	0.07915412085479172
5.091000000000035	0.741853449446941	0.07851297533836546
5.092000000000035	0.7419316696897553	0.07792728345261206
5.093000000000035	0.7420093293807605	0.07739187336164915
5.094000000000036	0.7420864764730583	0.0769020875401096
5.095000000000036	0.7421631544936668	0.07645373135895674
5.096000000000037	0.7422394029832812	0.07604302681262556
5.097000000000037	0.7423152578920745	0.07566657087335853
5.098000000000037	0.742390751935936	0.07532129801001772
5.099000000000038	0.7424659149171008	0.075004446454927
5.100000000000038	0.7425407740127347	0.07471352784394192
5.101000000000038	0.7426153540346755	0.07444629989242581
5.102000000000039	0.7426896776632173	0.07420074180354208
5.103000000000039	0.7427637656575319	0.07397503213563197
5.104000000000039	0.742837637045065	0.07376752888277001
5.10500000000004	0.7429113092920081	0.07357675154717988
5.10600000000004	0.7429847984567396	0.07340136500432567
5.10700000000004	0.7430581193279372	0.07324016498141117
5.108000000000041	0.7431312855488955	0.07309206498794725
5.109000000000041	0.7432043097294269	0.07295608455318103
5.110000000000041	0.7432772035465882	0.07283133863970116
5.111000000000042	0.7433499778353506	0.07271702811560202
5.112000000000042	0.7434226426702173	0.07261243117935161
5.113000000000042	0.7434952074386953	0.07251689564209314
5.114000000000043	0.7435676809074353	0.07242983198163742
5.115000000000043	0.7436400712817725	0.07235070709097738
5.116000000000043	0.7437123862593286	0.07227903865187302
5.117000000000044	0.7437846330782691	0.07221439007100011
5.118000000000044	0.7438568185607493	0.07215636592240673
5.119000000000044	0.7439289491520302	0.07210460784564721
5.120000000000045	0.7440010309556995	0.07205879085402614
5.121000000000045	0.7440730697653828	0.07201862001194194
5.122000000000045	0.7441450710933001	0.07198382744442031
5.123000000000046	0.7442170401959807	0.07195416964561886
5.124000000000046	0.7442845072141919	0.06297967154681806
5.125000000000046	0.7443445586880598	0.05712310242746313
5.126000000000047	0.7443987610955486	0.05128155572135243
5.127000000000047	0.7444474777813971	0.04615167502593209
5.128000000000047	0.7444912978161158	0.04148826763447125
5.129000000000048	0.7445306863383093	0.03728866280098157
5.130000000000048	0.7445660787017603	0.03349596171375425
5.131000000000048	0.7445978630152568	0.03007257333267168
5.132000000000049	0.744626389972303	0.02698125823838747
5.133000000000049	0.7446519753129873	0.02418934912014983
5.134000000000049	0.7446749036356352	0.02166722985282122
5.13500000000005	0.7446954314283919	0.01938829628295018
5.13600000000005	0.7447137898973781	0.01732858858769031
5.13700000000005	0.7447301874871221	0.0154665434707992
5.138000000000051	0.7447448121551948	0.01378275037410252
5.139000000000051	0.7447578334178421	0.01225973725800557
5.140000000000051	0.7447694041914577	0.01088177650646818
5.141000000000052	0.7447796624498287	0.00963471056565368
